<svg id="レイヤー_8" data-name="レイヤー 8" xmlns="http://www.w3.org/2000/svg" viewBox="0 0 283.46 283.46"><defs><style>.cls-1{opacity:0.57;}.cls-2{fill:#f0833e;}.cls-3{fill:#86c35d;}.cls-4{fill:#72c6c5;}.cls-5{fill:#e95d8b;}.cls-16,.cls-6{fill:#eac160;}.cls-7{opacity:0;}.cls-16,.cls-8{font-size:30.52px;font-family:LetterGothicStd-BoldSlanted, Letter Gothic Std;font-weight:700;font-style:oblique;letter-spacing:-0.06em;}.cls-8{fill:#231815;}.cls-9{letter-spacing:-0.14em;}.cls-10{letter-spacing:-0.11em;}.cls-11{letter-spacing:-0.19em;}.cls-12{letter-spacing:-0.1em;}.cls-13{letter-spacing:-0.09em;}.cls-14{letter-spacing:-0.22em;}.cls-15{letter-spacing:-0.13em;}</style></defs><title>アートボード 1</title><g class="cls-1"><path class="cls-2" d="M141.57,51.1a1.15,1.15,0,0,1-1.16-1.16l0-22.68a1.17,1.17,0,0,1,2.33,0l0,22.68A1.17,1.17,0,0,1,141.57,51.1Z"/><path class="cls-3" d="M193.36,59.22a1.16,1.16,0,0,1-.6-.17,1.17,1.17,0,0,1-.53-.72,1.14,1.14,0,0,1,.14-.88L204.1,38a1.15,1.15,0,0,1,1-.56,1.22,1.22,0,0,1,.61.17,1.16,1.16,0,0,1,.52.72,1.14,1.14,0,0,1-.13.88l-11.73,19.4A1.15,1.15,0,0,1,193.36,59.22Z"/><path class="cls-3" d="M232.19,90a1.17,1.17,0,0,1-1.08-.54,1.15,1.15,0,0,1,.35-1.6l19.1-12.23a1.2,1.2,0,0,1,.52-.18,1.16,1.16,0,0,1,1.09.53,1.18,1.18,0,0,1-.36,1.61l-19.1,12.23A1.15,1.15,0,0,1,232.19,90Z"/><path class="cls-3" d="M272.14,139.78l-22.63-1.42a1.17,1.17,0,0,1,.08-2.33h.07l22.63,1.42a1.16,1.16,0,0,1-.07,2.32Z"/><path class="cls-4" d="M256.81,199.07a1.1,1.1,0,0,1-.66-.21l-18.62-12.94a1.16,1.16,0,1,1,1.33-1.91L257.48,197a1.16,1.16,0,0,1-.67,2.12Z"/><path class="cls-2" d="M89.49,59.3a1.15,1.15,0,0,1-1-.56L76.72,39.36a1.13,1.13,0,0,1-.14-.88,1.16,1.16,0,0,1,.53-.72,1.26,1.26,0,0,1,.6-.17,1.15,1.15,0,0,1,1,.56L90.48,57.54a1.17,1.17,0,0,1,.14.88,1.15,1.15,0,0,1-.53.71A1.07,1.07,0,0,1,89.49,59.3Z"/><path class="cls-5" d="M51.83,89.08a1.26,1.26,0,0,1-.54-.13L31.18,78.46a1.17,1.17,0,0,1,.54-2.2,1.13,1.13,0,0,1,.54.13L52.37,86.88a1.17,1.17,0,0,1-.54,2.2Z"/><path class="cls-5" d="M11.25,140a1.17,1.17,0,0,1-.08-2.33l22.63-1.47h.08A1.16,1.16,0,0,1,35,137.27,1.17,1.17,0,0,1,34,138.51L11.32,140Z"/><path class="cls-5" d="M26.76,199.24a1.16,1.16,0,0,1-.67-2.12l18.59-13A1.16,1.16,0,1,1,46,186L27.42,199A1.1,1.1,0,0,1,26.76,199.24Z"/></g><path class="cls-2" d="M131.1,92.65c1.7,9.2-.47,18.15-5.32,24.21a28.15,28.15,0,0,1,13-3.23h0a29.73,29.73,0,0,1,18.61,6.71A33,33,0,0,1,159,98.92a27.38,27.38,0,0,1,13-14.07,35.81,35.81,0,0,1,12.42-3.19,23.84,23.84,0,0,0-13.28-10.92c-11.55-4-26.15-3.2-32.37,5.14-7.26-5-15.46-4.34-21.12-.26-.3.21-.59.44-.87.68C124.13,79.37,129.78,85.47,131.1,92.65Z"/><path class="cls-6" d="M202.22,179.22h-.06a27,27,0,0,1-18.23-9,21.74,21.74,0,0,1-2.25-3.2,23.82,23.82,0,0,1-12.44,3.33,27.32,27.32,0,0,1-14.41-4.15A17.6,17.6,0,0,1,143,170.94a13.53,13.53,0,0,1-6.29-1.47A29.75,29.75,0,0,1,132,177.6c3,4.87,8.29,8.36,16.55,7.54-1,5.55.82,12.44,8.77,15.49-1.54,9-8.06,17.64-15.58,23.38a42.19,42.19,0,0,0,25.16-21.19c5,.45,17.86-1.69,18.82-13.81,8.8.32,15.17-3.9,18.69-9.81-.44,0-.87.05-1.31.05S202.52,179.24,202.22,179.22Z"/><path class="cls-3" d="M228,132.88c-1.26-8.23-7.1-15.61-16.34-16.64a31.25,31.25,0,0,0,.49-7c-.35-7.54-3.4-15.17-9.58-19.77-10.73-8-27.08-6-36.21,3.53-7.39,7.74-9.14,20.47-4.83,30.16.31.69.64,1.36,1,2,.18.32.37.64.57.95.05.1.11.18.17.28a25.19,25.19,0,0,1,5.78-.7,27.14,27.14,0,0,1,4.89.47,19.68,19.68,0,0,1,3.17.83,21.31,21.31,0,0,1,11.32,9.4,23.92,23.92,0,0,1,3.32,10.79,22.75,22.75,0,0,1-1,8.41,21,21,0,0,1-6.64,9.79c.35.61.73,1.2,1.13,1.76,8.22,11.29,27.63,12.55,34.5-1a19.35,19.35,0,0,0,1.69-12.21c0-.16,0-.32-.09-.49-.1-.49-.21-1-.35-1.49.38-.29.74-.59,1.09-.9A17.63,17.63,0,0,0,224,149,20.81,20.81,0,0,0,228,132.88Z"/><path class="cls-4" d="M188.86,148.41a20.11,20.11,0,0,0-4.38-12.61c-5-6.19-13.3-8.33-20.89-6.47-.49.12-1,.27-1.53.42l-.36.09c-.26-.45-.53-.89-.82-1.33l-.27-.4a26.6,26.6,0,0,0-18-11.22,26.33,26.33,0,0,0-19.76,5.35c-.22.18-.42.39-.64.58,2.16,4.59,1.94,10.16-.79,15.75-.06.12-.13.23-.19.34a18.26,18.26,0,0,1-15.39,9.87c.08,6.8-1.69,16.34-7.36,21.7a31.49,31.49,0,0,1-5.91,4.37,20.69,20.69,0,0,0,2,2.2c6.48,6.2,16.46,7.71,24.86,5.11a22.71,22.71,0,0,0,14.49-13.82c.26-.66.5-1.32.7-2s.39-1.25.55-1.84a8.85,8.85,0,0,0,.74.76l.19.18c4.95,4.37,14,2.67,17.71-2.66l.12-.16c.11-.17.21-.34.31-.51a23.75,23.75,0,0,0,21.52,4.22A18.6,18.6,0,0,0,188.86,148.41Z"/><path class="cls-5" d="M128.81,97.63a21.29,21.29,0,0,0-3.56-11A21.91,21.91,0,0,0,115.4,79a23,23,0,0,0-17.64,0c-6.71,2.92-11.17,9.18-13.63,15.87,0,.06,0,.13-.06.18-.3.82-.58,1.66-.84,2.54-.43,0-.86,0-1.29,0h-.21c-8.11.09-15.92,5.7-20,12.52-5.22,8.67-5.5,22,1.3,29.94-7.26,5.78-7.61,16.53-3.58,24.32,6.84,13.2,23.57,15.41,34.67,6.1,7.22-6.05,9.69-15.45,8.61-24.55.5,0,1,.06,1.52.07h.55a16.39,16.39,0,0,0,13.59-7.73c2.77-4.59,3.32-11.27.16-15.81a14.18,14.18,0,0,0-1.78-2.07,15.83,15.83,0,0,0,1.6-.79c6.49-3.66,9.7-11.15,10.38-18.28A24.59,24.59,0,0,0,128.81,97.63Z"/><g class="cls-7"><text class="cls-8" transform="translate(61.79 254.58) rotate(-0.01)">H<tspan class="cls-9" x="16.48" y="0">a</tspan><tspan class="cls-10" x="30.52" y="0">c</tspan><tspan class="cls-9" x="45.47" y="0">k</tspan><tspan class="cls-11" x="59.51" y="0">i</tspan><tspan class="cls-12" x="72.02" y="0">n</tspan><tspan class="cls-13" x="87.28" y="0">g</tspan><tspan class="cls-14" x="102.85" y="0"> </tspan><tspan class="cls-13" x="114.44" y="0">H</tspan><tspan class="cls-15" x="130.01" y="0">R</tspan><tspan class="cls-13" x="144.35" y="0">!</tspan></text><text class="cls-16" transform="translate(61.79 254.58) rotate(-0.01)">H<tspan class="cls-9" x="16.48" y="0">a</tspan><tspan class="cls-10" x="30.52" y="0">c</tspan><tspan class="cls-9" x="45.47" y="0">k</tspan><tspan class="cls-11" x="59.51" y="0">i</tspan><tspan class="cls-12" x="72.02" y="0">n</tspan><tspan class="cls-13" x="87.28" y="0">g</tspan><tspan class="cls-14" x="102.85" y="0"> </tspan><tspan class="cls-13" x="114.44" y="0">H</tspan><tspan class="cls-15" x="130.01" y="0">R</tspan><tspan class="cls-13" x="144.35" y="0">!</tspan></text></g></svg>